<svg xmlns="http://www.w3.org/2000/svg" viewBox="0 0 780 440" width="780" height="440" role="img" font-family="IBM Plex Sans, Helvetica, Arial, sans-serif">
<title>3D column chart of exam questions per section: regulations 25, station and safety 21, electronics 13, antennas 13, operating 9, propagation 8, components 6, interference 5</title>
<defs><radialGradient id="eball" cx="35%" cy="32%" r="70%"><stop offset="0" stop-color="#ffffff"/><stop offset="0.45" stop-color="#cbd5e0"/><stop offset="1" stop-color="#4a5568"/></radialGradient><radialGradient id="vball" cx="35%" cy="32%" r="70%"><stop offset="0" stop-color="#fff7e0"/><stop offset="0.45" stop-color="#f59e0b"/><stop offset="1" stop-color="#92400e"/></radialGradient><radialGradient id="core" cx="35%" cy="32%" r="70%"><stop offset="0" stop-color="#e2e8f0"/><stop offset="0.45" stop-color="#718096"/><stop offset="1" stop-color="#1a202c"/></radialGradient><radialGradient id="silverball" cx="35%" cy="32%" r="70%"><stop offset="0" stop-color="#ffffff"/><stop offset="0.45" stop-color="#c0c6cf"/><stop offset="1" stop-color="#5a6270"/></radialGradient><radialGradient id="copperball" cx="35%" cy="32%" r="70%"><stop offset="0" stop-color="#ffd2b0"/><stop offset="0.45" stop-color="#c8733c"/><stop offset="1" stop-color="#5e2b10"/></radialGradient><radialGradient id="goldball" cx="35%" cy="32%" r="70%"><stop offset="0" stop-color="#fff3b0"/><stop offset="0.45" stop-color="#e6b422"/><stop offset="1" stop-color="#7a5a00"/></radialGradient><radialGradient id="alball" cx="35%" cy="32%" r="70%"><stop offset="0" stop-color="#f0f6ff"/><stop offset="0.45" stop-color="#a8b8cc"/><stop offset="1" stop-color="#4a5868"/></radialGradient><radialGradient id="glow" r="50%"><stop offset="0" stop-color="#f59e0b" stop-opacity="0.55"/><stop offset="1" stop-color="#f59e0b" stop-opacity="0"/></radialGradient><linearGradient id="panel" x1="0" y1="0" x2="0" y2="1"><stop offset="0" stop-color="#2d3748" stop-opacity="0.45"/><stop offset="1" stop-color="#1a202c" stop-opacity="0.15"/></linearGradient><linearGradient id="gloss" x1="0" y1="0" x2="0" y2="1"><stop offset="0" stop-color="#ffffff" stop-opacity="0.45"/><stop offset="0.45" stop-color="#ffffff" stop-opacity="0.05"/><stop offset="0.55" stop-color="#000000" stop-opacity="0"/><stop offset="1" stop-color="#000000" stop-opacity="0.35"/></linearGradient><filter id="softglow" x="-50%" y="-50%" width="200%" height="200%"><feGaussianBlur stdDeviation="4" result="b"/><feMerge><feMergeNode in="b"/><feMergeNode in="SourceGraphic"/></feMerge></filter><marker id="arrow" viewBox="0 0 10 10" refX="9" refY="5" markerWidth="7" markerHeight="7" orient="auto-start-reverse"><path d="M0,0 L10,5 L0,10 z" fill="#f59e0b"/></marker></defs>
<rect x="15" y="15" width="750" height="410" rx="14" fill="url(#panel)" stroke="#4a5568" stroke-opacity="0.6"/>
<ellipse cx="93.1" cy="324.0" rx="40.1" ry="6" fill="#000" fill-opacity="0.4"/>
<polygon points="58.0,95.0 110.0,95.0 128.2,83.3 76.2,83.3" fill="#fde68a"/>
<rect x="58.0" y="95.0" width="52" height="225.0" fill="#f59e0b"/>
<rect x="58.0" y="95.0" width="52" height="225.0" fill="url(#gloss)"/>
<polygon points="110.0,320.0 110.0,95.0 128.2,83.3 128.2,308.3" fill="#92400e"/>
<text x="93.0" y="73.0" font-size="20" fill="#fbbf24" text-anchor="middle" font-weight="bold">25</text>
<text x="88.0" y="348.0" font-size="13" fill="#e6e6e6" text-anchor="middle" font-weight="bold">B-001</text>
<text x="88.0" y="366.0" font-size="11" fill="#a0aec0" text-anchor="middle" font-weight="normal">Regulations</text>
<text x="88.0" y="386.0" font-size="11" fill="#a0aec0" text-anchor="middle" font-weight="normal" font-style="italic">199 in bank</text>
<ellipse cx="183.1" cy="324.0" rx="40.1" ry="6" fill="#000" fill-opacity="0.4"/>
<polygon points="148.0,131.0 200.0,131.0 218.2,119.3 166.2,119.3" fill="#fde68a"/>
<rect x="148.0" y="131.0" width="52" height="189.0" fill="#f59e0b"/>
<rect x="148.0" y="131.0" width="52" height="189.0" fill="url(#gloss)"/>
<polygon points="200.0,320.0 200.0,131.0 218.2,119.3 218.2,308.3" fill="#92400e"/>
<text x="183.0" y="109.0" font-size="20" fill="#fbbf24" text-anchor="middle" font-weight="bold">21</text>
<text x="178.0" y="348.0" font-size="13" fill="#e6e6e6" text-anchor="middle" font-weight="bold">B-003</text>
<text x="178.0" y="366.0" font-size="11" fill="#a0aec0" text-anchor="middle" font-weight="normal">Station &amp; Safety</text>
<text x="178.0" y="386.0" font-size="11" fill="#a0aec0" text-anchor="middle" font-weight="normal" font-style="italic">199 in bank</text>
<ellipse cx="273.1" cy="324.0" rx="40.1" ry="6" fill="#000" fill-opacity="0.4"/>
<polygon points="238.0,203.0 290.0,203.0 308.2,191.3 256.2,191.3" fill="#cbd5e0"/>
<rect x="238.0" y="203.0" width="52" height="117.0" fill="#718096"/>
<rect x="238.0" y="203.0" width="52" height="117.0" fill="url(#gloss)"/>
<polygon points="290.0,320.0 290.0,203.0 308.2,191.3 308.2,308.3" fill="#2d3748"/>
<text x="273.0" y="181.0" font-size="20" fill="#e6e6e6" text-anchor="middle" font-weight="bold">13</text>
<text x="268.0" y="348.0" font-size="13" fill="#e6e6e6" text-anchor="middle" font-weight="bold">B-005</text>
<text x="268.0" y="366.0" font-size="11" fill="#a0aec0" text-anchor="middle" font-weight="normal">Electronics</text>
<text x="268.0" y="386.0" font-size="11" fill="#a0aec0" text-anchor="middle" font-weight="normal" font-style="italic">142 in bank</text>
<ellipse cx="363.1" cy="324.0" rx="40.1" ry="6" fill="#000" fill-opacity="0.4"/>
<polygon points="328.0,203.0 380.0,203.0 398.2,191.3 346.2,191.3" fill="#cbd5e0"/>
<rect x="328.0" y="203.0" width="52" height="117.0" fill="#718096"/>
<rect x="328.0" y="203.0" width="52" height="117.0" fill="url(#gloss)"/>
<polygon points="380.0,320.0 380.0,203.0 398.2,191.3 398.2,308.3" fill="#2d3748"/>
<text x="363.0" y="181.0" font-size="20" fill="#e6e6e6" text-anchor="middle" font-weight="bold">13</text>
<text x="358.0" y="348.0" font-size="13" fill="#e6e6e6" text-anchor="middle" font-weight="bold">B-006</text>
<text x="358.0" y="366.0" font-size="11" fill="#a0aec0" text-anchor="middle" font-weight="normal">Antennas &amp; Feedlines</text>
<text x="358.0" y="386.0" font-size="11" fill="#a0aec0" text-anchor="middle" font-weight="normal" font-style="italic">140 in bank</text>
<ellipse cx="453.1" cy="324.0" rx="40.1" ry="6" fill="#000" fill-opacity="0.4"/>
<polygon points="418.0,239.0 470.0,239.0 488.2,227.3 436.2,227.3" fill="#cbd5e0"/>
<rect x="418.0" y="239.0" width="52" height="81.0" fill="#718096"/>
<rect x="418.0" y="239.0" width="52" height="81.0" fill="url(#gloss)"/>
<polygon points="470.0,320.0 470.0,239.0 488.2,227.3 488.2,308.3" fill="#2d3748"/>
<text x="453.0" y="217.0" font-size="20" fill="#e6e6e6" text-anchor="middle" font-weight="bold">9</text>
<text x="448.0" y="348.0" font-size="13" fill="#e6e6e6" text-anchor="middle" font-weight="bold">B-002</text>
<text x="448.0" y="366.0" font-size="11" fill="#a0aec0" text-anchor="middle" font-weight="normal">Operating</text>
<text x="448.0" y="386.0" font-size="11" fill="#a0aec0" text-anchor="middle" font-weight="normal" font-style="italic">99 in bank</text>
<ellipse cx="543.1" cy="324.0" rx="40.1" ry="6" fill="#000" fill-opacity="0.4"/>
<polygon points="508.0,248.0 560.0,248.0 578.2,236.3 526.2,236.3" fill="#cbd5e0"/>
<rect x="508.0" y="248.0" width="52" height="72.0" fill="#718096"/>
<rect x="508.0" y="248.0" width="52" height="72.0" fill="url(#gloss)"/>
<polygon points="560.0,320.0 560.0,248.0 578.2,236.3 578.2,308.3" fill="#2d3748"/>
<text x="543.0" y="226.0" font-size="20" fill="#e6e6e6" text-anchor="middle" font-weight="bold">8</text>
<text x="538.0" y="348.0" font-size="13" fill="#e6e6e6" text-anchor="middle" font-weight="bold">B-007</text>
<text x="538.0" y="366.0" font-size="11" fill="#a0aec0" text-anchor="middle" font-weight="normal">Propagation</text>
<text x="538.0" y="386.0" font-size="11" fill="#a0aec0" text-anchor="middle" font-weight="normal" font-style="italic">87 in bank</text>
<ellipse cx="633.1" cy="324.0" rx="40.1" ry="6" fill="#000" fill-opacity="0.4"/>
<polygon points="598.0,266.0 650.0,266.0 668.2,254.3 616.2,254.3" fill="#cbd5e0"/>
<rect x="598.0" y="266.0" width="52" height="54.0" fill="#718096"/>
<rect x="598.0" y="266.0" width="52" height="54.0" fill="url(#gloss)"/>
<polygon points="650.0,320.0 650.0,266.0 668.2,254.3 668.2,308.3" fill="#2d3748"/>
<text x="633.0" y="244.0" font-size="20" fill="#e6e6e6" text-anchor="middle" font-weight="bold">6</text>
<text x="628.0" y="348.0" font-size="13" fill="#e6e6e6" text-anchor="middle" font-weight="bold">B-004</text>
<text x="628.0" y="366.0" font-size="11" fill="#a0aec0" text-anchor="middle" font-weight="normal">Components</text>
<text x="628.0" y="386.0" font-size="11" fill="#a0aec0" text-anchor="middle" font-weight="normal" font-style="italic">63 in bank</text>
<ellipse cx="723.1" cy="324.0" rx="40.1" ry="6" fill="#000" fill-opacity="0.4"/>
<polygon points="688.0,275.0 740.0,275.0 758.2,263.3 706.2,263.3" fill="#cbd5e0"/>
<rect x="688.0" y="275.0" width="52" height="45.0" fill="#718096"/>
<rect x="688.0" y="275.0" width="52" height="45.0" fill="url(#gloss)"/>
<polygon points="740.0,320.0 740.0,275.0 758.2,263.3 758.2,308.3" fill="#2d3748"/>
<text x="723.0" y="253.0" font-size="20" fill="#e6e6e6" text-anchor="middle" font-weight="bold">5</text>
<text x="718.0" y="348.0" font-size="13" fill="#e6e6e6" text-anchor="middle" font-weight="bold">B-008</text>
<text x="718.0" y="366.0" font-size="11" fill="#a0aec0" text-anchor="middle" font-weight="normal">Interference</text>
<text x="718.0" y="386.0" font-size="11" fill="#a0aec0" text-anchor="middle" font-weight="normal" font-style="italic">55 in bank</text>
<text x="390.0" y="46.0" font-size="16" fill="#e6e6e6" text-anchor="middle" font-weight="bold">Questions on a 100-question Basic exam, by section</text>
<text x="390.0" y="68.0" font-size="12" fill="#a0aec0" text-anchor="middle" font-weight="normal" font-style="italic">one question from each of 100 topic areas · regulations and station practice = 46 of 100</text>
</svg>
